# xmcd
#
# Track frame offsets:
# 150
# 96153
# 116187
# 163788
#
# Disc length: 2954 seconds
#
#
# Revision: 0
# Processed by: cddbd v1.5.1PL2 Copyright (c) Steve Scherf et al.
# Submitted via: FreeRIP 2.945 
#
DISCID=300b8804
DTITLE=emilia biancardi - raizes bahia 1
DYEAR=1960
DGENRE=tradicional
TTITLE0=candomblé de keto
TTITLE1=samba de roda
TTITLE2=capoeira
TTITLE3=maculele
EXTD=
EXTT0=
EXTT1=
EXTT2=
EXTT3=
PLAYORDER=
